<svg width="1728" height="4840" viewBox="0 0 1728 4840" fill="none" xmlns="http://www.w3.org/2000/svg">
<g clip-path="url(#clip0_102_3)">
<rect width="1728" height="4840" fill="black"/>
<path d="M438.941 2470V2403.99L413.16 2453.14H402.253L376.472 2403.99V2470H356.924V2369.43H377.889L407.636 2426.65L437.666 2369.43H458.489V2470H438.941ZM479.487 2470V2369.43H499.035V2470H479.487ZM513.928 2419C513.928 2412.87 515.014 2406.87 517.186 2401.01C519.452 2395.07 522.71 2389.68 526.96 2384.87C531.21 2379.96 536.404 2376.08 542.542 2373.25C548.68 2370.32 555.668 2368.86 563.507 2368.86C572.761 2368.86 580.741 2370.89 587.446 2374.95C594.245 2379.01 599.298 2384.3 602.603 2390.82L587.588 2401.16C585.888 2397.38 583.669 2394.4 580.93 2392.23C578.191 2389.97 575.264 2388.41 572.147 2387.56C569.031 2386.61 565.962 2386.14 562.94 2386.14C558.029 2386.14 553.732 2387.13 550.05 2389.12C546.461 2391.1 543.439 2393.7 540.984 2396.91C538.528 2400.12 536.687 2403.71 535.459 2407.67C534.326 2411.64 533.759 2415.61 533.759 2419.57C533.759 2424.01 534.468 2428.31 535.884 2432.46C537.301 2436.52 539.284 2440.16 541.834 2443.37C544.478 2446.49 547.594 2448.99 551.183 2450.88C554.866 2452.67 558.879 2453.57 563.223 2453.57C566.34 2453.57 569.503 2453.05 572.714 2452.01C575.925 2450.97 578.9 2449.32 581.638 2447.05C584.377 2444.79 586.502 2441.86 588.013 2438.27L604.019 2447.48C602.036 2452.48 598.778 2456.73 594.245 2460.23C589.807 2463.72 584.802 2466.36 579.23 2468.16C573.658 2469.95 568.134 2470.85 562.657 2470.85C555.48 2470.85 548.916 2469.39 542.967 2466.46C537.017 2463.44 531.871 2459.47 527.527 2454.56C523.277 2449.55 519.925 2443.98 517.469 2437.84C515.108 2431.61 513.928 2425.33 513.928 2419ZM701.696 2369.43V2470H682.29V2427.08H636.677V2470H617.129V2369.43H636.677V2410.08H682.29V2369.43H701.696ZM750.016 2369.43H769.848L806.819 2470H786.705L777.356 2444.93H742.225L733.018 2470H712.903L750.016 2369.43ZM773.814 2431.19L759.932 2389.68L745.484 2431.19H773.814ZM887.686 2452.86V2470H817.851V2369.43H886.411V2386.57H837.399V2410.79H879.753V2426.65H837.399V2452.86H887.686ZM902.926 2470V2369.43H922.474V2452.86H973.752V2470H902.926ZM1096.42 2444.08C1096.42 2449.74 1094.95 2454.51 1092.03 2458.38C1089.1 2462.16 1085.13 2465.04 1080.13 2467.03C1075.22 2469.01 1069.83 2470 1063.98 2470H1015.39V2369.43H1069.22C1073.94 2369.43 1078 2370.7 1081.4 2373.25C1084.9 2375.71 1087.54 2378.92 1089.33 2382.88C1091.22 2386.76 1092.17 2390.82 1092.17 2395.07C1092.17 2399.88 1090.94 2404.46 1088.48 2408.81C1086.03 2413.15 1082.44 2416.36 1077.72 2418.44C1083.48 2420.14 1088.01 2423.21 1091.32 2427.65C1094.72 2432.08 1096.42 2437.56 1096.42 2444.08ZM1076.73 2440.39C1076.73 2437.84 1076.21 2435.58 1075.17 2433.6C1074.13 2431.52 1072.71 2429.91 1070.92 2428.78C1069.22 2427.55 1067.24 2426.94 1064.97 2426.94H1034.94V2453.43H1063.98C1066.34 2453.43 1068.46 2452.86 1070.35 2451.73C1072.34 2450.5 1073.89 2448.89 1075.03 2446.91C1076.16 2444.93 1076.73 2442.76 1076.73 2440.39ZM1034.94 2386.14V2411.5H1061C1063.18 2411.5 1065.16 2410.98 1066.95 2409.94C1068.75 2408.9 1070.16 2407.44 1071.2 2405.55C1072.34 2403.66 1072.9 2401.39 1072.9 2398.75C1072.9 2396.2 1072.38 2393.98 1071.34 2392.09C1070.4 2390.2 1069.08 2388.74 1067.38 2387.7C1065.77 2386.66 1063.93 2386.14 1061.85 2386.14H1034.94ZM1136.8 2369.43H1156.63L1193.6 2470H1173.48L1164.14 2444.93H1129.01L1119.8 2470H1099.68L1136.8 2369.43ZM1160.59 2431.19L1146.71 2389.68L1132.26 2431.19H1160.59ZM1204.63 2470V2369.43H1249.11C1253.74 2369.43 1257.99 2370.37 1261.86 2372.26C1265.82 2374.15 1269.22 2376.7 1272.06 2379.91C1274.99 2383.12 1277.2 2386.71 1278.72 2390.67C1280.32 2394.64 1281.12 2398.7 1281.12 2402.86C1281.12 2407.11 1280.37 2411.21 1278.86 2415.18C1277.44 2419.05 1275.36 2422.45 1272.62 2425.38C1269.89 2428.31 1266.67 2430.57 1262.99 2432.18L1285.94 2470H1264.41L1243.73 2436.29H1224.18V2470H1204.63ZM1224.18 2419.15H1248.68C1251.14 2419.15 1253.31 2418.44 1255.2 2417.02C1257.09 2415.51 1258.6 2413.53 1259.73 2411.07C1260.87 2408.62 1261.43 2405.88 1261.43 2402.86C1261.43 2399.65 1260.77 2396.86 1259.45 2394.5C1258.13 2392.04 1256.43 2390.11 1254.35 2388.69C1252.37 2387.27 1250.2 2386.57 1247.83 2386.57H1224.18V2419.15ZM1298.84 2470V2369.43H1343.31C1347.94 2369.43 1352.19 2370.37 1356.06 2372.26C1360.03 2374.15 1363.43 2376.7 1366.26 2379.91C1369.19 2383.12 1371.41 2386.71 1372.92 2390.67C1374.53 2394.64 1375.33 2398.7 1375.33 2402.86C1375.33 2407.11 1374.57 2411.21 1373.06 2415.18C1371.65 2419.05 1369.57 2422.45 1366.83 2425.38C1364.09 2428.31 1360.88 2430.57 1357.2 2432.18L1380.14 2470H1358.61L1337.93 2436.29H1318.38V2470H1298.84ZM1318.38 2419.15H1342.89C1345.35 2419.15 1347.52 2418.44 1349.41 2417.02C1351.29 2415.51 1352.81 2413.53 1353.94 2411.07C1355.07 2408.62 1355.64 2405.88 1355.64 2402.86C1355.64 2399.65 1354.98 2396.86 1353.66 2394.5C1352.33 2392.04 1350.63 2390.11 1348.56 2388.69C1346.57 2387.27 1344.4 2386.57 1342.04 2386.57H1318.38V2419.15Z" fill="white"/>
<rect x="1785.78" y="-64" width="1688.28" height="5724.82" transform="rotate(18.7246 1785.78 -64)" fill="white" style="mix-blend-mode:difference"/>
</g>
<defs>
<clipPath id="clip0_102_3">
<rect width="1728" height="4840" fill="white"/>
</clipPath>
</defs>
</svg>
